<?xml version="1.0" standalone="no"?>
<!DOCTYPE svg PUBLIC "-//W3C//DTD SVG 20010904//EN"
 "http://www.w3.org/TR/2001/REC-SVG-20010904/DTD/svg10.dtd">
<svg version="1.0" xmlns="http://www.w3.org/2000/svg"
 width="516.000000pt" height="98.000000pt" viewBox="0 0 516.000000 98.000000"
 preserveAspectRatio="xMidYMid meet">

<g transform="translate(0.000000,98.000000) scale(0.100000,-0.100000)"
fill="#000000" stroke="none">
<path d="M390 916 c-238 -132 -285 -161 -297 -186 -9 -18 -13 -87 -13 -242 0
-253 -5 -240 115 -306 39 -21 122 -67 185 -102 72 -41 126 -64 145 -64 36 1
379 191 413 230 21 24 22 31 22 247 0 184 -3 226 -15 244 -20 29 -397 243
-427 243 -8 0 -65 -29 -128 -64z m305 -116 c88 -50 166 -98 173 -107 8 -12 12
-69 12 -199 0 -158 -2 -184 -17 -203 -16 -19 -93 -63 -272 -158 -43 -23 -70
-31 -85 -27 -55 18 -326 180 -335 202 -7 13 -11 95 -11 192 0 161 1 170 23
194 24 28 313 195 337 196 9 0 88 -41 175 -90z"/>
<path d="M393 721 c-56 -32 -109 -63 -117 -71 -13 -10 -16 -38 -16 -154 0 -77
4 -146 8 -152 7 -11 243 -144 255 -144 20 0 256 144 259 158 3 10 3 72 1 139
-1 67 -3 128 -3 136 0 18 -230 147 -262 147 -13 -1 -69 -27 -125 -59z m213
-71 c39 -21 76 -45 83 -53 8 -10 11 -47 9 -112 l-3 -97 -87 -47 -87 -46 -76
40 c-107 56 -106 55 -103 166 l3 94 79 48 c44 26 87 47 95 47 9 0 48 -18 87
-40z"/>
<path d="M475 567 c-37 -21 -40 -26 -43 -69 -3 -45 -2 -48 37 -73 49 -30 51
-30 102 -5 40 21 40 21 37 73 -3 49 -5 53 -43 74 -22 13 -42 23 -45 23 -3 0
-23 -10 -45 -23z"/>
<path d="M1110 335 l0 -276 25 -24 c32 -33 65 -33 65 -1 0 15 -7 26 -20 29
-19 5 -20 15 -22 274 l-3 268 -22 3 -23 3 0 -276z"/>
<path d="M2630 512 l0 -99 -52 18 c-103 36 -195 21 -264 -43 -146 -134 -48
-377 152 -378 28 0 73 7 100 15 61 19 64 18 64 -1 0 -10 7 -14 23 -12 l22 3 0
295 0 295 -22 3 c-23 3 -23 1 -23 -96z m-47 -136 l37 -18 0 -128 0 -128 -43
-21 c-50 -24 -122 -27 -171 -7 -43 18 -93 80 -101 126 -13 76 34 160 105 189
36 15 128 8 173 -13z"/>
<path d="M2770 345 l0 -265 28 -31 c23 -26 38 -33 80 -37 l52 -5 0 47 c0 39
-3 46 -20 46 -35 0 -40 31 -40 274 l0 236 -50 0 -50 0 0 -265z"/>
<path d="M1406 436 c-146 -55 -189 -268 -74 -372 80 -73 221 -73 312 0 16 13
17 18 6 31 -17 20 -29 19 -57 -7 -19 -18 -39 -23 -94 -26 -62 -4 -74 -1 -109
22 -32 21 -80 87 -80 111 0 3 87 5 194 5 l194 0 5 26 c12 67 -38 161 -105 195
-53 27 -141 34 -192 15z m165 -56 c43 -22 79 -71 79 -107 0 -23 0 -23 -170
-23 -111 0 -170 4 -170 10 0 6 9 28 20 50 41 81 154 114 241 70z"/>
<path d="M1873 425 c-162 -82 -161 -311 1 -390 50 -24 65 -27 125 -23 37 3 82
12 100 21 29 15 31 14 31 -4 0 -14 7 -19 25 -19 l25 0 0 215 0 215 -25 0 c-16
0 -25 -6 -25 -15 0 -14 -4 -13 -32 1 -18 10 -64 19 -103 21 -61 4 -77 1 -122
-22z m207 -47 l45 -23 3 -126 3 -127 -44 -21 c-48 -23 -134 -28 -170 -10 -106
54 -136 177 -65 264 56 68 145 84 228 43z"/>
<path d="M3126 435 c-122 -43 -177 -194 -116 -315 23 -45 44 -64 100 -89 84
-38 190 -23 254 37 82 77 88 229 13 311 -56 61 -168 86 -251 56z m160 -119
c30 -30 34 -40 34 -86 0 -91 -66 -146 -145 -120 -78 26 -109 116 -65 188 23
38 49 50 104 51 30 1 45 -6 72 -33z"/>
<path d="M4051 438 c-67 -15 -135 -88 -152 -162 -21 -95 5 -166 85 -230 67
-55 211 -47 285 15 13 11 22 21 20 22 -2 1 -16 12 -30 25 -26 22 -28 23 -57 8
-17 -9 -54 -16 -82 -16 -44 0 -56 5 -81 29 -16 16 -29 34 -29 40 0 7 52 11
160 11 l160 0 0 55 c0 144 -130 238 -279 203z m119 -103 c28 -15 50 -42 50
-64 0 -7 -37 -11 -105 -11 -58 0 -105 2 -105 5 0 20 28 57 54 69 39 20 69 20
106 1z"/>
<path d="M4625 445 c-5 -2 -22 -6 -37 -9 -14 -3 -40 -18 -57 -32 l-31 -26 0
31 c0 31 0 31 -55 31 l-55 0 0 -215 0 -215 54 0 54 0 4 131 3 131 33 29 c26
23 42 29 78 29 l45 0 -3 57 c-3 53 -10 66 -33 58z"/>
<path d="M3430 435 c0 -6 40 -92 134 -287 59 -125 68 -138 91 -138 24 0 34 16
121 196 52 108 99 205 105 215 9 18 5 19 -48 19 l-59 0 -53 -115 c-30 -64 -58
-118 -62 -121 -5 -3 -34 49 -65 116 l-57 120 -54 0 c-29 0 -53 -2 -53 -5z"/>
<path d="M4805 429 c-64 -37 -86 -89 -65 -153 14 -43 53 -69 140 -91 35 -9 73
-21 82 -26 21 -11 24 -39 6 -57 -17 -17 -122 -15 -165 3 -19 8 -37 15 -39 15
-2 0 -12 -17 -23 -39 l-20 -38 24 -11 c44 -20 150 -35 197 -28 98 15 153 87
129 167 -13 43 -49 72 -111 88 -19 6 -54 15 -77 21 -52 13 -71 41 -46 66 14
13 28 15 77 10 34 -3 72 -8 86 -12 22 -5 28 0 43 31 l17 36 -28 11 c-38 16
-202 21 -227 7z"/>
</g>
</svg>
