<svg width="626" height="189" viewBox="0 0 626 189" fill="none" xmlns="http://www.w3.org/2000/svg">
<rect x="1" y="1" width="623.135" height="187" fill="white"/>
<path d="M274.482 104.667C273.377 103.562 271.996 103.838 271.168 104.575C267.762 107.428 264.632 108.533 260.581 108.533C252.481 108.533 246.037 101.721 246.037 92.9758C246.037 84.2306 252.297 77.5107 260.581 77.5107C264.54 77.5107 267.854 78.7074 270.984 81.3769C271.72 82.0213 273.009 82.2975 273.929 81.2849C274.758 80.4564 275.586 79.5359 275.586 79.5359L275.77 79.3517L275.586 79.1676C272.272 75.9457 268.13 73 260.581 73C249.627 73 241.158 81.8372 241.158 93.0678C241.158 104.391 249.443 112.952 260.489 112.952C266.657 112.952 271.168 110.926 275.77 106.14C275.903 106.001 275.543 105.67 275.304 105.44C275.109 105.252 274.842 104.994 274.482 104.667Z" fill="#004CFF"/>
<path d="M427.476 73.4603H430.698C432.447 73.4603 432.723 74.5649 432.723 75.3014V78.5233H429.501C427.844 78.5233 427.476 77.5107 427.476 76.6822V73.4603Z" fill="#004CFF"/>
<path d="M427.844 83.8624H430.422C431.802 83.8624 432.447 84.5988 432.539 85.7955V112.491H429.593C428.58 112.399 427.844 111.571 427.844 110.466V83.8624Z" fill="#004CFF"/>
<path d="M334.685 88.4651C337.171 84.9671 340.392 83.218 344.443 83.218C351.071 83.218 355.121 87.6366 355.029 94.7248V112.307H352.544C350.703 112.307 350.426 111.203 350.426 110.006V95.6453C350.426 90.4903 347.849 87.4525 343.338 87.4525C339.564 87.4525 335.79 90.03 335.79 95.9215V112.307H333.212C331.923 112.307 331.187 111.663 331.187 110.282V95.5533C331.187 90.3982 328.61 87.3605 324.191 87.3605C319.864 87.3605 316.642 91.0426 316.642 96.0136V110.282C316.642 111.847 315.906 112.215 314.617 112.215H312.04V83.5862H314.617C315.906 83.5862 316.735 84.4147 316.735 85.7955V87.8207C318.576 85.4273 321.061 83.0339 325.664 83.0339C331.003 83.0339 333.58 86.2558 334.685 88.4651Z" fill="#004CFF"/>
<path fill-rule="evenodd" clip-rule="evenodd" d="M377.674 83.3101C373.44 83.3101 369.942 85.1512 367.088 89.1095V86.1638C367.088 84.6909 366.26 83.9545 364.787 83.9545H362.485V119.119C362.485 120.5 363.13 121.144 364.511 121.144H367.088V107.52C369.942 111.203 373.348 113.044 377.674 113.044C384.302 113.044 391.298 107.797 391.298 98.1308C391.298 88.4651 384.302 83.3101 377.674 83.3101ZM386.512 98.1308C386.512 104.391 382.553 108.717 376.846 108.717C371.967 108.717 366.904 104.667 366.904 98.0388C366.904 91.4109 371.967 87.3605 376.846 87.3605C381.633 87.4525 386.512 91.1347 386.512 98.1308Z" fill="#004CFF"/>
<path fill-rule="evenodd" clip-rule="evenodd" d="M462.825 88.281V85.8876C462.825 84.5068 464.113 83.7703 464.942 83.7703H467.519V107.244C467.519 116.081 462.18 121.144 452.975 121.144C448.188 121.144 443.861 119.856 440.087 117.186L439.903 117.094L439.995 116.91C439.995 116.91 440.271 116.358 441.008 115.161C441.376 114.516 441.928 114.24 442.481 114.24C442.941 114.24 443.493 114.424 444.23 114.885C446.991 116.45 449.937 117.186 452.975 117.186C459.234 117.186 462.917 113.596 462.917 107.336V104.575C459.879 108.257 456.289 110.006 452.054 110.006C445.518 110.006 438.614 105.311 438.614 96.5659C438.614 92.6996 440.087 89.1095 442.757 86.624C445.242 84.3227 448.648 83.0339 452.054 83.0339C457.485 83.0339 460.891 85.7955 462.825 88.281ZM452.975 106.232C457.946 106.232 463.101 102.734 463.101 96.8421C463.101 90.6744 457.854 87.4525 452.975 87.5446C447.544 87.5446 443.493 91.4108 443.493 96.8421C443.493 102.181 447.544 106.232 452.975 106.232Z" fill="#004CFF"/>
<path d="M489.244 83.3101C485.194 83.3101 482.064 84.9671 479.855 88.281V85.8876C479.855 84.5068 478.75 83.9545 477.645 83.9545H475.068V112.583H479.763L479.671 96.1977C479.671 91.1347 483.077 87.6366 487.955 87.6366C492.742 87.6366 495.504 90.6744 495.504 95.9215V110.65C495.504 112.031 496.148 112.583 497.345 112.583H500.107V94.7248C500.199 87.7287 495.964 83.3101 489.244 83.3101Z" fill="#004CFF"/>
<path d="M398.295 85.7035C401.793 84.1386 405.015 83.4021 408.605 83.4021C416.429 83.4021 420.756 87.5446 420.848 94.8169V112.307H418.27C416.89 112.307 416.245 111.755 416.245 110.466V108.533C413.76 111.479 410.354 113.044 406.303 113.044C398.847 113.044 395.533 108.257 395.533 103.93C395.533 98.2229 399.952 94.9089 407.776 94.9089H412.563V96.4738C412.563 97.7626 411.919 98.407 410.538 98.407H408.236C403.081 98.407 400.228 100.34 400.228 103.838C400.228 107.52 403.818 109.177 407.132 109.177C412.471 109.177 416.337 106.14 416.337 101.813V94.9089C416.337 90.1221 413.484 87.4525 408.236 87.4525C405.843 87.4525 403.726 87.9128 401.332 88.8333C400.504 89.2016 399.399 89.1095 399.031 88.189C398.663 87.2684 398.203 85.9797 398.203 85.9797L398.11 85.7955L398.295 85.7035Z" fill="#004CFF"/>
<path d="M292.708 83.4021C288.29 83.4021 285.16 84.5068 282.398 85.7035L282.306 86.0717C282.306 86.0717 282.766 87.3605 283.135 88.281C283.503 89.2016 284.608 89.2936 285.436 88.9254C287.829 88.0048 289.947 87.5446 292.34 87.5446C297.587 87.5446 300.533 90.2141 300.533 95.001V101.813C300.533 106.14 296.667 109.177 291.328 109.177C288.014 109.177 284.516 107.52 284.516 103.838C284.516 100.34 287.369 98.407 292.432 98.407H294.734C296.114 98.407 296.759 97.7626 296.759 96.4738V94.9089H292.064C284.239 94.9089 279.729 98.2229 279.729 103.93C279.729 108.257 283.043 113.044 290.407 113.044C294.457 113.044 297.863 111.479 300.441 108.533V110.466C300.441 111.755 301.085 112.307 302.374 112.307H304.952V94.8169C304.86 87.5446 300.533 83.4021 292.708 83.4021Z" fill="#004CFF"/>
<path d="M519.438 74.4729C520.635 75.2093 546.87 93.5281 547.515 94.0804C548.619 94.8169 549.172 95.7374 549.172 96.658V97.2103C549.172 97.9467 548.895 99.1434 547.607 100.064C547.054 100.524 519.162 119.948 519.162 119.948V115.621C519.162 114.332 519.254 113.688 520.727 112.767C521.923 112.031 540.887 98.8673 543.372 97.1182C542.204 96.2961 537.456 92.9929 532.618 89.6269L532.511 89.5523L532.507 89.5493L532.387 89.4662C527.007 85.7231 521.584 81.95 520.911 81.469L520.727 81.3769C520.657 81.3211 520.588 81.2668 520.521 81.2135C519.699 80.5648 519.07 80.0685 519.07 78.7074V74.1967L519.438 74.4729Z" fill="#004CFF"/>
<path d="M531.129 99.1434C531.865 99.1434 532.602 98.8673 533.338 98.3149C534.259 97.6705 535.087 97.1182 535.087 97.1182L535.363 96.9341L535.087 96.75C534.995 96.658 522.752 88.189 521.463 87.3605C520.911 86.9002 520.174 86.8081 519.714 87.0843C519.254 87.3605 518.886 87.8207 518.886 88.5572V91.4109L518.978 91.5029C519.07 91.595 527.447 97.3944 529.104 98.499C529.84 98.9593 530.485 99.1434 531.129 99.1434Z" fill="#004CFF"/>
<path d="M137.873 105.955C138.425 105.495 139.714 104.851 140.727 105.863C141.647 106.784 142.108 107.152 142.108 107.152V107.336C139.898 109.914 136.492 112.952 130.509 112.952C122.408 112.952 115.78 106.232 115.78 98.0388C115.78 89.6618 122.316 83.126 130.509 83.126C135.111 83.126 138.702 84.6909 141.923 88.189L142.108 88.3731L141.923 88.5572C141.923 88.5572 141.095 89.4777 140.359 90.2141C139.53 91.1347 138.517 91.0426 137.321 90.03C135.664 88.7413 133.639 87.3605 130.509 87.3605C125.078 87.3605 120.751 92.0552 120.751 98.0388C120.751 104.114 125.17 108.809 130.785 108.809C133.362 108.809 135.756 107.889 137.873 105.955Z" fill="#004CFF"/>
<path d="M171.289 73.4603H168.067V76.6822C168.067 77.5107 168.435 78.5233 170.092 78.5233H173.314V75.6696C173.406 74.3808 172.578 73.4603 171.289 73.4603Z" fill="#004CFF"/>
<path d="M168.251 83.8624H170.921C172.301 83.8624 173.038 84.5988 172.946 85.7955V112.491H170C168.987 112.399 168.251 111.571 168.251 110.466V83.8624Z" fill="#004CFF"/>
<path d="M201.206 85.4273C200.838 86.4399 193.842 103.378 192.461 106.508C191.621 104.408 188.358 96.4835 186.084 90.9628L186.069 90.9258C184.861 87.9931 183.936 85.7466 183.808 85.4273C183.348 84.3227 182.427 83.6783 181.231 83.6783H177.917L178.101 83.9545C178.193 84.3227 189.331 110.006 189.792 111.018C190.252 112.215 190.988 112.491 192.185 112.491H192.737C193.842 112.491 194.578 112.031 195.039 111.018C195.499 110.006 206.638 84.5068 206.73 84.2306L206.914 83.8624H203.692C202.495 83.8624 201.667 84.3227 201.206 85.4273Z" fill="#004CFF"/>
<path d="M219.065 96.4738H230.019C230.296 96.4738 230.48 96.3818 230.756 96.0136C230.848 95.8295 230.94 95.4612 230.848 95.001C230.388 90.2142 226.982 87.0843 222.287 87.0843C217.592 87.0843 213.91 90.9506 213.358 96.4738C213.358 96.4738 213.266 97.1182 213.266 98.0388C213.266 98.8673 213.358 99.5116 213.358 99.5116C214.002 105.127 217.868 108.901 223.115 108.901C226.153 108.901 228.639 107.981 230.664 106.14C231.216 105.587 232.229 105.219 233.333 106.14C234.07 106.784 234.714 107.336 234.714 107.336L234.898 107.52L234.714 107.704C231.308 111.387 227.718 113.044 222.931 113.044C214.738 113.044 208.571 106.692 208.571 98.1308C208.571 89.6618 214.554 83.218 222.379 83.218C229.559 83.218 234.806 88.0049 235.635 95.3692C235.727 96.8421 235.359 98.1308 234.622 98.9593C233.794 99.7878 232.689 100.156 231.216 100.156C228.731 100.156 222.655 100.156 217.408 100.248H217.132V98.407C217.132 97.2103 217.868 96.4738 219.065 96.4738Z" fill="#004CFF"/>
<path d="M97.6453 74.9331C97.093 73.8285 96.4486 73.4603 95.2519 73.4603H94.1473C93.2267 73.4603 92.3983 74.0126 91.938 74.8411C91.5698 75.6696 75.3682 111.755 75.1841 112.123L75 112.491H78.0378C79.3265 112.491 80.155 111.939 80.7994 110.65C81.1883 109.872 82.6267 106.631 83.6047 104.426C84.0157 103.5 84.3454 102.757 84.4816 102.457H96.3566C97.8295 102.457 98.75 101.537 98.75 100.156V98.1308H86.3227L94.6996 79.3517C95.5026 81.1268 98.4013 87.7141 101.355 94.4276C104.836 102.337 108.393 110.421 108.692 111.018C109.428 112.491 111.177 112.491 111.73 112.491H114.491L114.307 112.123C114.307 111.755 98.1977 76.1298 97.6453 74.9331Z" fill="#004CFF"/>
<path d="M159.69 108.165C160.334 107.981 160.979 108.073 161.439 108.349C161.715 108.625 162.083 108.993 161.991 109.73C161.991 110.742 161.899 111.571 161.899 111.571V111.663L161.807 111.755C160.334 112.491 158.033 112.952 156.008 112.952C150.669 112.952 147.815 110.006 147.815 104.759V73.5523H150.116C151.497 73.5523 152.418 74.4729 152.418 75.7616V83.8624H159.046C160.15 83.8624 161.439 84.5988 161.439 86.0717V88.0049H152.51V104.114C152.51 107.152 154.075 108.625 157.02 108.625C157.941 108.625 158.677 108.441 159.69 108.165Z" fill="#004CFF"/>
<rect x="1" y="1" width="623.135" height="187" stroke="#E7EEFF" stroke-width="2"/>
</svg>
