<svg xmlns="http://www.w3.org/2000/svg" viewBox="0 0 388.05 421.1"><defs><style>.cls-1{fill:#3fa9f5;}</style></defs><g id="Layer_2" data-name="Layer 2"><g id="Layer_1-2" data-name="Layer 1"><path class="cls-1" d="M156.47,159.14c41.86,0,83.71-.16,125.56.08,21.78.12,35.94,24.11,28.26,47.51-4.09,12.47-11.84,20.06-23.08,21.88a68.31,68.31,0,0,1-10.79.7q-120.15.06-240.3-.05c-5.24,0-10.7-.26-15.68-2C7,222.69-1.55,206.33.23,190c1.86-17,13.39-30.27,27.8-30.62,20.68-.49,41.37-.18,62.05-.2Z"/><path class="cls-1" d="M229.1.09c36.6,0,73.19-.28,109.78.11,25.05.27,41.52,23.94,33,46.85-4.81,12.92-14.26,20.64-28.08,22.5a83.87,83.87,0,0,1-11.2.67q-103.3.06-206.6,0c-5.7,0-11.64-.3-17.07-1.85C92.2,63.58,82.25,47.06,84.77,29.38A34.39,34.39,0,0,1,118.46.24C150.15-.15,181.85.1,213.55.08Z"/><path class="cls-1" d="M230,328.69c36,0,72-.11,108.05.06,15.6.08,27.37,7.23,33.28,21.75,5.42,13.3,3.2,26.05-6.56,37-7.41,8.29-17.14,11.44-27.91,11.45-71.75.06-143.5.22-215.24-.08-22.48-.1-37.45-15.12-37.17-35.68s15.72-34.4,38.36-34.46C158.55,328.62,194.28,328.69,230,328.69Z"/><circle cx="331.05" cy="364.1" r="57"/></g></g></svg>